<svg width="81" height="16" viewBox="0 0 81 16" fill="none" xmlns="http://www.w3.org/2000/svg">
<path fill-rule="evenodd" clip-rule="evenodd" d="M21.4699 3.00003L13.6627 3.00003C10.9678 3.00003 8.78318 5.23861 8.78318 8.00003C8.78318 10.7615 10.9678 13 13.6627 13L21.4699 13C24.1648 13 26.3495 10.7615 26.3495 8.00003C26.3495 5.23861 24.1648 3.00003 21.4699 3.00003ZM5.85547 8.00003C5.85547 12.4183 9.35089 16 13.6627 16L21.4699 16C25.7817 16 29.2772 12.4183 29.2772 8.00003C29.2772 3.58175 25.7817 3.0739e-05 21.4699 3.06911e-05L13.6627 3.06043e-05C9.35088 3.05564e-05 5.85547 3.58175 5.85547 8.00003Z" fill="#1F2021"/>
<path fill-rule="evenodd" clip-rule="evenodd" d="M13.6627 13C16.3576 13 18.5422 10.7615 18.5422 8.00003C18.5422 5.23861 16.3576 3.00003 13.6627 3.00003C10.9678 3.00003 8.78318 5.23861 8.78318 8.00003C8.78318 10.7615 10.9678 13 13.6627 13ZM5.85547 8.00003C5.85547 12.4183 9.35089 16 13.6627 16C17.9745 16 21.4699 12.4183 21.4699 8.00003C21.4699 3.58175 17.9745 3.06523e-05 13.6627 3.06043e-05C9.35088 3.05564e-05 5.85547 3.58175 5.85547 8.00003Z" fill="#1F2021"/>
<path d="M32.2048 16H35.5229V10.5778H38.6403C38.9972 10.5778 39.3256 10.7774 39.4967 11.0983L42.1103 16H45.8675L43.2227 11.0524C42.9422 10.5276 43.1811 9.87931 43.6641 9.54307C44.1869 9.17919 44.6001 8.72781 44.9038 8.18892C45.3836 7.34447 45.6235 6.37781 45.6235 5.28892C45.6235 3.94077 45.2616 2.79262 44.5378 1.84448C43.814 0.896327 42.6633 0.311142 41.0856 0.0889198C40.8578 0.0518828 40.5976 0.0296604 40.3048 0.0222526C40.0202 0.00743802 39.7925 3.05176e-05 39.6217 3.05176e-05H32.2048V16ZM35.5229 7.75559V2.82225H39.4753C39.6461 2.82225 39.8331 2.82966 40.0365 2.84448C40.2398 2.85929 40.4268 2.88892 40.5976 2.93336C41.0449 3.04448 41.3905 3.23336 41.6345 3.50003C41.8785 3.75929 42.0452 4.05188 42.1347 4.37781C42.2322 4.69633 42.281 5.00003 42.281 5.28892C42.281 5.57781 42.2322 5.88522 42.1347 6.21114C42.0452 6.52966 41.8785 6.82225 41.6345 7.08892C41.3905 7.34818 41.0449 7.53336 40.5976 7.64448C40.4268 7.68892 40.2398 7.71855 40.0365 7.73336C39.8331 7.74818 39.6461 7.75559 39.4753 7.75559H35.5229Z" fill="#1F2021"/>
<path d="M48.7952 16H52.1132V10.5778H55.2306C55.5875 10.5778 55.9159 10.7774 56.087 11.0983L58.7006 16H62.4578L59.8131 11.0524C59.5325 10.5276 59.7714 9.87931 60.2544 9.54307C60.7772 9.17919 61.1904 8.72781 61.4941 8.18892C61.9739 7.34447 62.2138 6.37781 62.2138 5.28892C62.2138 3.94077 61.8519 2.79262 61.1282 1.84448C60.4044 0.896327 59.2536 0.311142 57.6759 0.0889198C57.4482 0.0518828 57.1879 0.0296604 56.8952 0.0222526C56.6105 0.00743802 56.3828 3.05176e-05 56.212 3.05176e-05H48.7952V16ZM52.1132 7.75559V2.82225H56.0657C56.2364 2.82225 56.4235 2.82966 56.6268 2.84448C56.8301 2.85929 57.0172 2.88892 57.1879 2.93336C57.6352 3.04448 57.9809 3.23336 58.2248 3.50003C58.4688 3.75929 58.6355 4.05188 58.725 4.37781C58.8226 4.69633 58.8714 5.00003 58.8714 5.28892C58.8714 5.57781 58.8226 5.88522 58.725 6.21114C58.6355 6.52966 58.4688 6.82225 58.2248 7.08892C57.9809 7.34818 57.6352 7.53336 57.1879 7.64448C57.0172 7.68892 56.8301 7.71855 56.6268 7.73336C56.4235 7.74818 56.2364 7.75559 56.0657 7.75559H52.1132Z" fill="#1F2021"/>
<path d="M70.293 16H74.1409V9.48892L81.0001 3.05176e-05H77.0586C76.7492 3.05176e-05 76.4582 0.150328 76.2741 0.405127L73.0014 4.93621C72.6113 5.47634 71.8227 5.47634 71.4325 4.93621L68.1598 0.405127C67.9758 0.150327 67.6848 3.05176e-05 67.3754 3.05176e-05H63.4338L70.293 9.48892V16Z" fill="#1F2021"/>
<path d="M7.80723 7.99994C7.80723 10.2091 6.05952 11.9999 3.90362 11.9999C1.74771 11.9999 0 10.2091 0 7.99994C0 5.7908 1.74771 3.99994 3.90362 3.99994C6.05952 3.99994 7.80723 5.7908 7.80723 7.99994Z" fill="#1F2021"/>
</svg>
